<mxfile host="65bd71144e">
    <diagram id="4h8xB4QbXMGGRfzG_kIA" name="Page-1">
        <mxGraphModel dx="1510" dy="301" grid="1" gridSize="10" guides="1" tooltips="1" connect="1" arrows="1" fold="1" page="1" pageScale="1" pageWidth="850" pageHeight="1100" math="0" shadow="0">
            <root>
                <mxCell id="0"/>
                <mxCell id="1" parent="0"/>
                <mxCell id="2" value="http://ics2o.mths.ca" style="swimlane;whiteSpace=wrap;html=1;" vertex="1" parent="1">
                    <mxGeometry x="40" y="40" width="760" height="460" as="geometry"/>
                </mxCell>
                <mxCell id="3" value="&lt;p style=&quot;line-height: 190%;&quot;&gt;&lt;font style=&quot;font-size: 30px;&quot;&gt;Calculate sum of a square&lt;/font&gt;&lt;/p&gt;" style="text;html=1;strokeColor=none;fillColor=none;align=center;verticalAlign=middle;whiteSpace=wrap;rounded=0;" vertex="1" parent="2">
                    <mxGeometry x="-80" y="40" width="550" height="30" as="geometry"/>
                </mxCell>
                <mxCell id="4" value="&lt;span style=&quot;font-size: 15px;&quot;&gt;Enter a number!&lt;/span&gt;" style="text;html=1;strokeColor=none;fillColor=none;align=center;verticalAlign=middle;whiteSpace=wrap;rounded=0;fontSize=30;" vertex="1" parent="2">
                    <mxGeometry x="-70" y="70" width="300" height="30" as="geometry"/>
                </mxCell>
                <mxCell id="5" value="Calculate the sum of square" style="rounded=1;whiteSpace=wrap;html=1;fontSize=15;" vertex="1" parent="2">
                    <mxGeometry x="20" y="160" width="170" height="40" as="geometry"/>
                </mxCell>
                <mxCell id="44" value="Number" style="rounded=1;whiteSpace=wrap;html=1;" vertex="1" parent="2">
                    <mxGeometry x="20" y="115" width="210" height="20" as="geometry"/>
                </mxCell>
                <mxCell id="46" value="" style="shape=image;verticalLabelPosition=bottom;labelBackgroundColor=default;verticalAlign=top;aspect=fixed;imageAspect=0;image=data:image/png,iVBORw0KGgoAAAANSUhEUgAAAI0AAACNCAMAAAC9gAmXAAABblBMVEUzM/8ArwD///8ArgAyMv4yMv8zM/767dE0NP//7AAAsgAAswD/8QAAtQD98NPp3MQAiAAAZgDWx7MkZh4AbgAtLeIAjQAAggAbG4kAQAAlJbgnJo4kJLMZGXzUyaoeHpYApgAhIaUxMfQAmQATE18ATQApKc0ASACQhR4VFWkAXgAnJ8QAVgAAAACtoAD04wDKuwAAALGViwZ9dQAxWABmXzFKUgAlJtWgkAC6qQCxnABuZhlcVQA3Mk4TFbsgIuMAAMLeywAICqK9s54AeABNSUJiXVKso5Cbk4I4NS/l5eHo1wCEfW6qqqojIR10bmEODkgAKAAAMgCCgoEAIADZ1tlvb2+/v7/FvrEfHUMRETMpKHsiIFYgH2JVVXAAAIVfW2qYl5MUQRkLCzoAAHWDg5FmZoRKSWwxMWQwMHUaMxZKRAAeURkAAFZvZgAUJREjIQYAACJJSU85NAAnJy4xHAA+UD4vTC0AEQAtVy9QMLfEAAAb5ElEQVR4nMVciX/bxpUGhIMQSAIizUtaqbx0VCJNMtS2ktauZZk0SR2WHMuyvEnaVI2zSZvU7ba7TvPf7ztmBjMg5bTd3293JJPAEAQ/vvN7b0a2ls6WaMBTnB7Fnzj/6Ymimsikr8jIcwEAh7X05g0+X//lbCmOMjiin00zeBTFPBEVry5inuDXM9OrC7wiyhQzPKJoWqQJeYvZxQVNxHIiM5rGyURUvIAxoolMrKO5eQhwrh++ANnwreOL5+IgFmCmz095gu88GsXPZ1EygVMPR9pEFF/NZtotYOL5NIqSifjqYja7FGgyZxqapdvLNwRGoolGJppRHBUf0leScKPoYkr3FrKJ4ulER5O5GAmZCDQZQK9PgISiaBKzvKNYRwPSITD3oEE9FC8ziaboisiQzTRjopldSlmJL/RwJvBLYaHIlfbPdDR3Dy/ffAxNJroyPgt0eXmR0SbAJEw0ICwhTUZzcRrHl7PIuCcZFqOJNTTXD29v0Xbul82U5RwltypeJqqLRlfT6SkDTsz6dKSjuQLlToxvGE+iRN5nCs0dqolM+R40URHAxLpsQOmXyUQUz2azUxZOLF+Pnhc1NKNTRKPLJhrNNDSxQvOCbOb2WqHJTE9jDU1UPL26mky1zxpNM9Oppin8cF1TAC8uXhjinYziychAc1XU0EjhWImzL6Ghw4DQUKSDmCeKUxj0kXGGJ2YjviAjJvA9MU/wG+GCTKRNwOvqLWJCXCDuGc+hOXtbNMfbn6XG6B+fmBvpK8T5W0aTxPK3v/i5OR5t/os5vvg8NfHvqfONz1ITn3+Rmvj1rxff84sbQiPCFNrHz3PmGHxiefoI6tvmhLfbMidau+a5dVBPTaytpSbqZZywjmeMJqOhWdYHoAksy7dwePgAaAI8wHdb+IqPaCzLVZeUNwM69nHgO7brPCFHsLYe8HvlqJXpyf2NQsPRRENzLtCo97jwfpKNi5/iwiMeIBo4gBc9nz4C0QC2Vh3GNgAENHi1hZfANb4PaOjdCB7vQWjgwLK+PJNo4qs40tH0h0o2HovFkrIRQvDw+xMawOD6DJhlAy9tr5NsPJSNeD/CwWtZNj7fxfelbHzrkzuJpnhZ1NHkTno5pSnL9aRoCY1v+XxfnEQ06mWBxgcZloV+CI1LA78CySYAUdDgr0Fo4B7Hv1V2c2qi6Q00NJayCtSUMQiNMit4ZLs52Fw/YLRsN56lBEya4os9lpCwG8v7/GwxmuVhP7FidSNPWTGLwlNoSHqun6DZPqjXA7An10I0qDOP1UmygSO0GFKmj2hcOuy8XYzm5DCXoPHYTJRshE6UpjxXM/XyJqEMrKDZQRlIu3E9NGXAgLLBY5q0XJJN4KJhB8dfL0QjFKU05UnD1ayY5xENCoZc3mPZePwFWgjDtwiNRyFGagqv8KWxkaY8D33S/YLRRCk0+/3ltKZAAp6PskGx+yR3n2UDEyQdNEoPZeNTOGjV6ArQlE+K8DkqWGg3eOaRLbMVixDw7kz61CiJN7nzw5xEw7emm8FNhKZcsj9XoMEJF+UB2hB2g28CNCgUkA18sOeyh/skG7wcodFtGA2CsZ7dinhTLGpoeicJGhFHUOqcGTjGUvAD8ZJsfA4cHP3Ay1GdQWcNZ9FufDIZDJIY9dDDXYTHX9Ln6Idysp7eyVgcabFYKMqIxfDNKRYHaBQefRVpxTI++hbLplUDzGs1DIMu2Y2HQDyUheuiFQMW+kYoTLYbl6TjvVmUp46MPMXeDIIgK2Z5+5rdUKLySfPs4UGrWautC6GhpsidXY8u4uhHVuS65FXk4ag4y/vm7OM5HO6NYodBDyAbY1i7LfGKGK1NnldzB3U6FRPwuLYmboZT+Awezi9Z1udnCb/JvH00ONLHYPjlE3Ns1NfM8bJpnq+/7JgT9V3zvFPbSN1iU92is3ursa3i70oFfZS23vfM8fjLphz1Oj5+VRdncvarpjlqm6mJjY3UxGZdHb57oWvqQT7MaiO/8m8p1Q2PldgtqSlL1xVrSinCQk0pJdEvaopfw/vAb60sbgkX3+n85kHesW34hQd8DAGNNGj2fUCDVMS3hHXLWBys1ZutoNXymN+4ZJfoMmzF5N4WGy76lM/0CD3e43jDTnX8NcXiuEj85kHeJjQOQ0rQ9IfDc4EGQzg4F7IsFf1a4EIHG+sbZfQpn4IaxSOKfgHDsfjjLYp+6KEUijkWM1UDNP8BaKLi89PnUFiwbGjQc1aiyQ0HEo0gVfVAyQaeSB1rmy3BbxgNRVxkFJQGjFjsU8RwOa2zh2Mot46/Qbu5yMSnFwYaW5dNrneUI47BmoKbbrQ44DATDRDcWt0PJBP1OYLA11exGD/ac12ONyQUUibHYqFMq/UtoMEi7orRkMXgL/4I2eQGw9zyUNoNkd0mqNqTsRie6wdrTZEZAs+lYOtyJqM8RUpCHsFZk3TMCC1lN2h/rV+LWAxVs7CbtGxy5/sykQor9mu+8AkZi/3P2DxYUz6bLRoOaoqE4LJlM0sXwTlh6RZrU6DBJkTmHjT9x4eDQa93ci6tGBxoHVzIchWjADXVDqhuQNn4zK44cTGjcFFr7FmsKYtMGGc5TzHlYTTUhEjQSDcXaE5OBr3Hw8MTgcbyX9YOytsbLSEbsIXtWlDGc1fUDJ4gMy6yrQALFxaMTzmc1IRplIkKcj9C45LdYJeu+DNsp+mycTQrhrDXx4iDPuUGB5sY8tbXAsmL0aihaAkEE/WZZFJiZjQWZ0XXl3bjYhggUyLZEHj08N+gT12dnp5eKdlI0ejxZl9GP/ikTgdN5aAJUiDZWGU4hJhjEfcLyGop9qEC0Ir54ynAuVzdyYComCiKyhPRj7JUlES/uVh8PlSx2LUoLXMxwz4FQIKgg+iIiVoyFgtG4fMXZ7olmCgbkmKiVEC4wRPKDJFgWxxvOBIDHg3NIJd4uNWsd8CQfelTbtBsdpp1ol9sxTLeWMyLucwlisWx2OfSk+BKJorHzbc62wLZcKzBXx2NzFZoxXDjg07nQHk4OshB58C3JNvyZaYSeYpV55LiBBPlOlNxP3oNHn5/ZuZwc1TSOfzwWOReWYPu+ib9au2a58y29EFsSx/1sjzyfgtMVI3RH7rmWH28b47vNlLjq/TEZ6nz3Zepic3N1MTLXXn0jli6oH6Z4vcVc5S6lRUe/FzZ6p0MBoMTHAM6eLxtjrWXqYnmRmqiXk9N7K7Loz/eLJmaAkdKRn6llBeHDXyw84UTUlgfAjOr7pHHnMkSqmttMqeiGWzXYHq3tF/JtugCepRsy2p9s2RUMJQ10Z1ogBWXQvawdiGL8/kC+lauNzzs7Z9T4nqEdR1XXFhUYPTD0xbEEAsqh40OWrEvsjolR/QprHS5YvW4Y0Lh8Mmd7N+Mihk9T3ESz66UsnSaL7RDW6LJHfVAKMvv+4yGKmxyDpGnENvaNnIgiP1cT3ENzq1DzAwudef4nYSGyvhvuWMSjWYXl4JtkVBYIA6hQRm199jlWTZU/OUOsSBF2eA9XdHGELE4wE9Y38ZogLGYSyePmIUlYzHHZsFEkW0cvxHdJGATk6KGxmFlgaayBK7bII05Eg0IqP/+XGjKc2WbQtThPmWJ1ub6AcUbbEm4VI+SxoiJUlYQPR1CAy9DFS57FNiH5+gnkxQxUdJUWCmFjtAYampw2IfE9X5Z2o1L3NOnGExoqAYvr29jfEa7wa4AFr5UrmLfzxdZPOkKwFf5VnUhgRgLtuWwkgiUsGK7W9rbKzVCKZvc0f5w+J47B48Ew0SjFHU4fEatxW1CyPOYp3zK2NTOUTkcVYVNUrYbeO/xhdYvvppEyqcEGGE3YeX1iuOQ6TCa5VySRh8RqSJyRSyL0LTqonpv1QLJRD1yJGZbHhfxlF5lDreevJVowMFHk4RROCwdtBsQSFgYg77ypXYo0WDCOpFoyE097l+J7jVSHWIUVs3n3pbHl6CxoxWTd3FuEnbjUQ+S0QDTmo2EFTOZcAQakI1dwIn8uJKgyZ0MBSr0cCQL1InzGQ1kHks0m0g2BMVzhaML2SRtVJSNBURrSa4zXFyNRpGyYo0XoxWH4ypUwY1uQ1gxdXjOlyUaSzm4K/gNepRPjXQIxMT9PK2XifGGowHRZxFvrKfXS8pu4sxHYrFd2iuVyMml3UjRiFjMJoyVJTHR7WbgBRudALhyWdZTLtd7WiymuCDR+NaTF0vpVQ/FtpzEw/G40W446ORSNv3+si4buivxKYp+LeTKrWatXm9xPYXeTP0rL2GilClUb8uzvrxZgMaoYACNmAhtEW9OUvSL85SwAE+twVCLlhrbHP24G0cXot2w0fMPZU3P2jiTdiNH8YHT0IdTLaUm9gZ9czw69lti+HDklzdb5tiupSbWm6mJ2gE8uL8/k2t38AMjLo7+tGqOV5+mJl5/99gcf95Mjf9Mnb/8Kj3xMjXxGT788S8p2aCmpAGLAbIxRlhYMScaO31Dc8vnv/KML+5v13xzYm09NVE78Fs+LcB83G7ywm6AbIEVYwgsVLJGaWzv9A1DyvV/lay3oPHQGgyzq6Szr9q+CduiBJ6gYdlkuVpIcnhILlXYK3Tb7TGiEflT9JucHcrkPazRD/GQ0HAPAp2esiYgah4EmDJbB5SnIA41tzEcNZtlq4yx2Dq+NtDMJKOQtaYjo5+dLVXC0FmF8IdoDOkJNNjc6e8vMxqqnjyxOoayWW+WD+odSlsbLZRNp14u19eDg9rB9sbGNnp48HSqoYlGl0kOn4t+BcBRLTiYGQw0jkCDQETmAjQeF2tivW677q9hQ7tGXZ468ZsOEQm/WQ5aECQx+gWf3CZoouJoYvRvOAgKfpOtVvNjwGUnaBxdNrmjQU6GZ9SUSOecl9Bu4MCvt6A29uu0docWFYDAmhCsmRcHz24UmiieZSQaR9IJxSjgbI/SuKM05ajWKckGdTQ8zwnZ4GqTRUzTYyaKqRtk4260WlDqUWawAuBAQW2zLHnxhtxHAVkTt89oTFQ02xQTDUuvgE44DsvGkbJxGA2KJTcYHg3RloVsKAtR/EU0QatTO7CanaDcFKtl4Pgd0F6tY4ma4dslhYa2z1wUNSbKeIRsstVSY69taEq3YlLU+/eD/glUNWg31Dwipsf9G2uttgbW+7Je39itd9DDO7X1MtCNMiHBfzLcIJoibp+5GiVohHSY32DFkG3sMUsXHi4Tq4PxBpTU/+s5EuYeoxFsj9aAyKeonQGRDiIfWXEd21EdgLXdZDQHd0uJ3USqZhCdG/4oIRtwKTuLD4ZsHKGp3PlQNin7hxT9mEr5RL/Aw8v1QKyOBmsd1BS2ezAuroMRNQNCI/iEijcj1U1KMVHb3kMusdcQstG8jtEMjnLL5/tYBh+RbJhYcW8L7aazW4PRRCOCIGitrZU3caLeqq03gc4zmlsTjehCSm9JmKgdVkvA/wq2pilHujiiOcJAczQcDIaHMhZ7Ym3R454o5SPkotstsmIx4W8fyNX5T1JoMpn7mKhtV7vdKoFYZMWq+zUQmYF6ap7PBYHgN9oQTFT8E9xP05SxIkS9iJAyoupRgP74BUAjr+CBWROLctVuItloQ+x40RKlnjUtkTUD3YrlKH7faBtjvGeet7vV1MTqSWr86tgcTzbK5oBMaY6NTrn85FqiKWq9rS1zrL4yz7uvVlNXvP7X1PjzL1JjrreVnvhqd2Pj3WShpsSiHQxauyvls8ZiHmgKn8Ql+Xy408iH2TCbBa3RBY1fpjqF53XLUqt7Fvf9LGMlFjXl7Z4ttmL0F+LAXDMoJ7MTD6fzdqXSduydhm7T8M5fUokjaj8YJ3UqLHEByvNVT5TSBxWGYsfLs1sTTax8KqxslUqlhqo1JeeRHt4Abw9LpfF4zGgczQ8RTe58cEJoTrAzWMcc6nG3RK7Oi64AFeLU2Q8MtjWaTKYJEy00QAe26pgk/IFkE7aR9XRRXeDhumwEmqPh0SGuBJzvHx0NAA0FZbXhiveYiNJTysbjPWQCzWw0jZmJ4h0LeeIPIocr8sVonGy1EmYrJeTJhEa0ujkmAprzQ1DRoEfbMUhT2OMjtYhaU8rGohUq0U2qqeouAq6VkbHYyZZ2ClWZNUNbpgmHak1kFJAkwm53byzQ2HZKU2Qy+8t9SOuEhnsjPq9XUSw2Ag6tsgZP7hSa4tXDSRKLwYRLRM9FnlJri6ypdgFtPW+PxwKNejlBkwMGNjjs7Z8gGpcKbrMniquNVDGL1TLr+JuEiUbx6SzimoG+KDZBE9koCoZostUV9itIpKGyG0EwGA1IZJ8ay8v7/fM6bjHhxTHc4SfWNdHHLF4TEmt3724Sn4pmV0mnDVlfNesou5HklOqpcE8oJxy3QyGbBBD51GAom029AaBBZybmRd0BsmLGQc0BIRvr6SiRTTSbRoptAY7KWEMjGRjKJt8uiAJPoUnZTa4nODKuFiMaz+duEy1DiR6F67qyOyd22Ml9olF8MVI9UbH2TOpQHRP5i2jwFVJPtrQYzckhKYmayr2Tc+xhe7QezWUfZU2xkUF5OMxzxMHMMJoqnwqrlTxkaCRXgolKaspWjBYVltr5MN/oOtKK5Xof2c3h4YB2y2BGJ7txebEZ1eG5snvNC3do4LzfT6ERywyim9ToVhuVLnoyM9Gk9CQrdsYgtEZ3XBl3nRDRhCpzSNnQ3p2TAcQ+oO0cb0hVxMGYUfi8MiGt2FK17xzbalQLYy5YtOjHfpWw9JVxhXAoD7dFhkuyJvCv/jLlKWrh8p43YltUarl6TxT3UChNGWyL0nN6RShUbIvzNSZ5eKIcro3sghwueR73LXhFSORw/KEeBfykZbNwtcwcWyXzfOVV1ZyofjcwR+/dgTnqte2OMXbX6enZXZpt/a5gjq0d87y0upW64tM983zvdWHPGFuPe4fG2H9XN8fLGj29eyF7W/RnKQkvDrNza3eJpvhleAJV5ec1tZN6R+Uwpbqjp/O82FJ9gVSHlky23bCTOlwVWKoOxwbK3l7JsSt6LKbnxk5WHPNPCGgEh8fC4oTQeLzXkPYAi92HnmB/IjNobMsOt/gzRPRTwU2yrT0osRp2u9tdQbblGNFvJysLPw7YKJtBrwc+36cVNkTD211cYj3CwwPV2ac/FpsVFRMNV8YhgciKbpKkN4JtQdbYc1AplbwR/YiJMhrFd0g251BLvD+kjTzLiIZXy1xL25kZ6J39q5mMxfj9uiL+Ug63VXEp4g3kpzwE4/ZeQ3A/RzYBE9koBkZolqko5vYXyYZ3A9H2LbEbyHr2VvGb2fM4o1Y98uNq3payYU1JYizYlh029irdRlayLU03hMYxNYUCeQyJFBMYoeFFAIsefbGu+Y3qF8enk9lkREwUbXSv0W6EtmNYccJEiW3lS39r0Jr0HBMl2ahKXqCBuhgIzz4oDNHQpnRkW7TPhNAET+9UPRVfjqLRw5h9KgQiOkaaKTTlyHaOYKK4UBW291YoryZ5SrNiNRwpG2wkD0++Gx719s8HTwPeoCx3uKMVt75IOm3xaTGKH3I3yW68rkINXsLCaSETdbqYWRv5ainvLGCiO1kn8W8lG2wO7u+D/ZwPQTa0cKYzUesTvSswmYJ8ilwztLtYxkDNJHixWo9mJppvl7LZcSVrZ5EDsmyEXmyhKSEWpSlulu7zHr3Dw6e0LQ4tmKMORD/ZSRc90avidCbYVhu/M9ZM2nq4Fv3ykN+JjOJCpz3PRAmNIZv+Edlxb0jV57CHVkzLZ4qJer8/09AAnFExUvymnc+3t9oCjcaKWVMFqF9KlXy+seUsqmB2ZD3IskLZHB6e93v7y71hHyLOYEDxhpmozx7+TOppblcHFrbdbqER6rFYejCgsVdsdPDxuNsO70FjNKQoFg+HAyTJ+/sQcShPcezjhlP9y+slE42Wp/DD4Ourzn4Sylg23GqrVBx6aY6JGtFP5allsYyOcfApsXTepY8069lz/a+O4ygTqRyeFR0R6pTkKws6JnliWtxRoRwuL6EWCuRwerdqqszlcNBUoO+PPv5iSRsGv0ntBO+upiZWu8ZEqfBpIT2RvsXjwxS/+fKZPtZ3XxhodO5XNUdhyzxfgQrdHK/G5vn4VeqC0k5qojs0uOFjA0y6t0U9qpC6Vawpal3hHPyK3pY4xZd2nDxfH/I7kW2Je9AlUAzmQ3kLJHH56pGht4ulpTnZyHXNrEoD0oqTMjypGbRiWMZi6XmNVRWL+RaVQigXUUTdeMTREJLF4GgwWZpDE/GeNsW2xBs5+ukzZmdf+pQ+Gqtqc6fwcNrxlcxlx4im/76Hsefov27m0ETx84eXl5QZ8o7KOraKfklBpVaEFKQ5JroqNwWzNBiNI28pZTPs9ZDtvE+DoTWYEf59dEbrCjAr4C6kk6yNLeilp5noqmzHS35TCG1dWGQ3g8MT3On+/jYNRjBR+gtwY6cUo5HRj6NbslomyPJ89FvNJmTRlrKxE8aGaJb3wWRyg+9ezIGRLP2qqO3ZT+xmARMVVW6CRqKTmjKZKKNRv3mwm+FRH0j78Ot5MMKn4ivJRJ3EBULVMRHmtFBThiIIjcFEC4piSCs+wW1f7/+6QDISzWwaSSaqXEr4lLRiWcEoRS5koiQbnYkWQikYmmGfyh0tUpPS1CRWPVFHfJbUlEyZtq3LRtmNKSyIfo4uKyUb8RbSFISaX8wbcGLF9Gf3qXVNXp+SelP8RnOZRUx0NZ9iooWsej/eF2WTO/nuHjDG30A/yKrSKInFqoNjJ/0baccaE5V2k658CU1yBfrU0WQuzpiaSvaYQFLBu4ShnWKihmyExybRT/OpOdnoPg/Rr/fmPixpNHm7Pe7urK52gf7m86l1hrkdL7a9ODMs8Cl1i+p/390PxkRTKXx48wLEeHbz4s2HByvjkpYyHdoNZE6wT2mjsRqa76gUjAvsyg/3mQyj0djWn65vE1Z4dnP94fVOaqfUq9TWqb+tpidS73j1Wj/bWb3fZIRskEwQE43nXvza3Co1t1MKZGOeN1ZTF1QK2kn7+49pydSU9t/QqPFmrG+eEnYD3AmQ0RJWKt6EEG8MM8lWCnIiG1Y/fFRLEg2JJjMvGoKTVaWm8PDQrj74MPmxJDomjqPFO1HdyaDgSH4T5p2VnxTMklgRms6mC0WDcArJlhvy8Gxj6xoN/fbDWPqUk3j4TtZRSR9BVIiJOu3xj9cftxiJJoonMf6vJ/dccNd1pJ+gpvJV6RVndzuNLcVEEzQYxSE85GnnYnWrUi3tfT958fdgUT2KSTFz3xW3v2sL0gJoGl2tMrz54VPDbrC6y4NBNSrVQvfHD5M3OO5e3N4sFvtCNJDBLy+m9yiKP3TFJuvNF7pmuLj5SzUbarE421htrJS+/+H67ubm74eQQhNfPZxFH3vz9c640q5U9/6QNsSz6602ORcWJ2FjZe/yzd3tPwNDoYkyk2LxdPTRe9y8uH4DX3jBNbeTUqXhNNqVldKPk/8VEoEmfg68OF3Z/P3j9vqH1R/APP4p1cyjyVxM46ufDEz/J4PsZjR6+/+Ng8f/ABaJd4L1tMorAAAAAElFTkSuQmCC;" vertex="1" parent="2">
                    <mxGeometry x="610" y="80" width="141" height="141" as="geometry"/>
                </mxCell>
            </root>
        </mxGraphModel>
    </diagram>
</mxfile>